<svg width="1024" height="1024" viewBox="0 0 1024 1024" fill="none" xmlns="http://www.w3.org/2000/svg">
<g clip-path="url(#clip0_2_70)">
<path d="M363 817.5H661.75C706.5 817.5 731.75 791.5 731.75 743.5V516C731.75 468.25 706.5 442.25 661.75 442.25H363C318 442.25 293 468.25 293 516V743.5C293 791.5 318 817.5 363 817.5ZM350.25 463.5H394.25V361.25C394.25 278 447 230.75 512.25 230.75C577.5 230.75 630.75 278 630.75 361.25V463.5H674.75V366.5C674.75 250 598.75 189 512.25 189C426 189 350.25 250 350.25 366.5V463.5Z" fill="white"/>
</g>
<defs>
<clipPath id="clip0_2_70">
<rect width="438.75" height="645.75" fill="white" transform="translate(293 189)"/>
</clipPath>
</defs>
</svg>
